<?xml version="1.0" encoding="utf-8"?>
<!-- Generator: Adobe Illustrator 27.5.0, SVG Export Plug-In . SVG Version: 6.00 Build 0)  -->
<svg version="1.1" xmlns="http://www.w3.org/2000/svg" xmlns:xlink="http://www.w3.org/1999/xlink" x="0px" y="0px"
	 viewBox="0 0 750 500" style="enable-background:new 0 0 750 500;" xml:space="preserve">
<g id="BACKGROUND">
	<rect style="fill:#F0F1F2;" width="750" height="500"/>
</g>
<g id="OBJECTS">
	<g>
		<g>
			<defs>
				<rect id="SVGID_1_" width="750" height="500"/>
			</defs>
			<clipPath id="SVGID_00000163752016204647359400000005398838163669636285_">
				<use xlink:href="#SVGID_1_"  style="overflow:visible;"/>
			</clipPath>
			<g style="clip-path:url(#SVGID_00000163752016204647359400000005398838163669636285_);">
				<g>
					<g>
						<path style="fill:#564A47;" d="M183.203,131.305c1.605,12.615,3.239,24.043,0.283,36.67c-0.112,0.477,0.999,0.16,1.157,0.062
							c12.486-7.787,27.675-7.427,39.923,0.614c9.89,6.493,15.335,17.957,23.809,25.959c3.358,3.171,8.638,5.1,10.146,9.776
							c0.23,1.067,0.163,2.101-0.2,3.102c-1.61,6.196-6.691,1.112-8.095-0.356c-1.774-1.855-2.678-4.337-4.166-6.396
							c-0.515-0.713-1.516-1.063-2.358-1.048c-3.201,0.059-6.511,1.797-9.828,2.079c-4.315,0.366-7.989,2.447-11.832,4.266
							c-0.875,0.414,0.454,0.533,0.873,0.334c4.639-2.197,8.683-3.46,13.886-4.172c3.545-0.485,6.995-2.89,9.182,1.103
							c1.651,3.013,4.703,8.172,8.877,7.464c2.794-0.474,5.648-2.339,5.241-5.676c-0.698-5.725-7.796-8.577-11.6-12.17
							c-10.8-10.199-16.577-23.68-31.301-29.234c-11.028-4.16-23.603-2.109-33.432,4.022c0.386,0.021,0.771,0.041,1.157,0.062
							c2.974-12.706,1.345-24.116-0.275-36.847C184.6,130.508,183.142,130.824,183.203,131.305L183.203,131.305z"/>
					</g>
					<g>
						<path style="fill:#564A47;" d="M155.446,144.739c4.722-14.147,13.362-28.106,27.566-34.192
							c4.243-1.818,7.125-3.434,8.74-7.959c0.452-1.268,0.945-2.404,1.731-3.522c2.234-3.179,3.586,3.31,3.649,3.775
							c0.595,4.408-1.973,7.747-5.236,10.372c-0.596,0.48,0.85,0.314,1.123,0.094c3.83-3.082,8.995-10.904,3.528-15.187
							c-3.633-2.846-6.193,4.656-6.871,6.455c-1.709,4.537-8.551,5.943-12.497,8.229c-3.496,2.025-6.533,4.762-9.311,7.668
							c-6.52,6.819-10.898,15.636-13.857,24.503C153.897,145.319,155.314,145.136,155.446,144.739L155.446,144.739z"/>
					</g>
					<g>
						<path style="fill:#564A47;" d="M149.841,169.48c1.062-12.731,4.677-25.316,12.544-35.553
							c3.706-4.823,8.643-8.712,14.384-10.772c4.092-1.468,7.456-0.839,9.528-5.212c0.822-1.736,2.111-6.165,3.992-2.169
							c1.102,2.342,0.499,5.57-0.315,7.847c-0.966,2.701-3.948,3.603-6.03,5.19c-2.244,1.71-3.369,3.568-4.098,6.307
							c-1.555,5.842,0.015,12.636,0.469,18.539c0.643,8.359-0.053,16.818-1.911,24.983c-0.073,0.32,1.003-0.009,1.123-0.067
							c14.3-7.049,28.392,5.968,35.369,17.256c3.805,6.156,6.269,13.079,9.68,19.451c1.481,2.766,3.29,5.263,5.288,7.672
							c1.036,1.249,1.928,2.553,2.779,3.932c0.576,0.934,3.353,8.821-1.678,7.091c-2.688-0.924-4.583-5.024-6.205-7.204
							c-1.421-1.909-3.245-3.015-5.503-3.656c-4.257-1.209-9.483-0.08-13.587,1.186c-7.893,2.435-15.409,6.201-23.874,4.734
							c-6.839-1.185-11.97-6.104-15.361-11.885c-0.193-0.33-1.541,0.231-1.449,0.388c4.988,8.506,12.961,13.085,22.84,12.357
							c4.651-0.343,9.188-2.202,13.53-3.743c5.415-1.922,10.89-3.502,16.701-2.508c4.214,0.721,6.3,5.059,8.588,8.167
							c1.297,1.762,3.604,3.76,5.971,2.952c4.457-1.521,2.515-6.584,0.628-9.641c-1.627-2.637-3.887-4.87-5.597-7.468
							c-1.8-2.736-3.2-5.746-4.604-8.697c-3.098-6.51-5.936-12.997-10.298-18.792c-5.816-7.728-14.563-13.899-24.474-14.109
							c-2.947-0.062-5.842,0.743-8.534,1.87c1.329-0.556,1.473-7.005,1.626-8.169c0.556-4.224,0.644-8.498,0.574-12.751
							c-0.107-6.521-1.394-12.964-1.045-19.497c0.222-4.143,1.775-7.182,5.288-9.436c1.777-1.141,3.475-2.085,4.754-3.816
							c1.754-2.374,2.266-8.595-0.241-10.604c-0.952-0.763-2.553-0.891-3.492,0.15c-2.875,3.186-1.638,7.04-7.343,8.142
							c-1.621,0.313-3.252,0.755-4.782,1.379c-4.421,1.802-8.412,4.515-11.656,8.035c-9.648,10.469-13.865,24.571-15.028,38.508
							C148.379,170.016,149.807,169.882,149.841,169.48L149.841,169.48z"/>
					</g>
					<g>
						<path style="fill:#564A47;" d="M148.508,168.459c-0.1,11.585,7.554,20.638,11.436,31.069
							c1.938,5.209,3.104,10.751,4.056,16.214c0.459,2.635,0.503,5.247,0.049,7.887c-0.285,1.659-1.148,3.073-2.196,4.366
							c-1.47,1.813-2.197-3.771-2.205-3.911c-0.332-6.005,2.555-11.608,1.774-17.711c-0.5-3.902-2.75-7.395-5.011-10.502
							c-3.914-5.377-24.664-25.287-7.305-27.31c0.615-0.072,1.273-0.71,0.254-0.592c-3.24,0.378-8.491,1.362-8.573,5.708
							c-0.121,6.394,5.093,11.869,9.026,16.418c4.632,5.356,9.395,10.691,10.327,17.971c0.589,4.603-5.61,18.697,0.805,21.059
							c0.371,0.136,0.974-0.087,1.251-0.335c7.059-6.321,2.473-18.82,0.266-26.4c-3.431-11.782-12.615-21.607-12.505-34.319
							C149.959,167.792,148.512,168.009,148.508,168.459L148.508,168.459z"/>
					</g>
					<g>
						<path style="fill:#564A47;" d="M148.731,166.969c-8.707,2.807-17.496-3.765-20.98-11.458
							c-1.586-3.502-1.204-7.409,0.408-10.793c1.102-2.315,3.3-3.676,5.658-4.378c0.935-0.08,1.87-0.161,2.804-0.241
							c3.861,0.565,4.162,2.187,0.902,4.868c-0.396-0.492-1.779,0.068-1.33,0.626c2.665,3.313,7.717-0.217,5.358-3.859
							c-2.673-4.127-8.507-2.881-11.979-0.485c-6.385,4.408-4.61,13.444-0.923,18.82c4.366,6.366,12.873,10.252,20.334,7.846
							C149.854,167.636,149.615,166.684,148.731,166.969L148.731,166.969z"/>
					</g>
					<g>
						<path style="fill:#564A47;" d="M149.49,167.342c-5.189-1.404-7.72-6.049-10.115-10.472
							c-2.745-5.068-4.914-10.347-5.768-16.069c-0.842-5.642,0.841-11.134,3.892-15.823c2.237-3.438,8.063-9.15,12.656-7.132
							c4.034,1.773,2.095,11.067-4.038,6.627c-0.385,0.177-0.77,0.354-1.155,0.532c0.507,0.044,1.014,0.088,1.521,0.132
							c0.299,0.026,1.66-0.514,0.944-0.576c-0.507-0.044-1.014-0.088-1.52-0.132c-0.155-0.013-1.437,0.328-1.155,0.532
							c3.466,2.509,8.621,0.848,9.015-3.64c0.234-2.664-2.634-4.852-5.083-4.628c-2.759,0.253-5.374,1.528-7.523,3.252
							c-7.681,6.159-10.388,15.05-8.406,24.576c1.137,5.464,3.948,10.626,6.664,15.441c2.059,3.65,4.717,6.804,8.88,7.931
							C148.624,167.981,149.894,167.451,149.49,167.342L149.49,167.342z"/>
					</g>
					<g>
						<path style="fill:#564A47;" d="M162.7,208.8c3.635,6.332,9.286,10.961,16.379,12.843c8.023,2.128,13.864-2.679,21.104-5.021
							c2.307-0.746,15.415,2.913,13.648-4.168c-0.678-2.716-2.306-4.58-4.813-5.823c-2.368-1.173-4.657-2.144-6.397-4.244
							c-1.785-2.154-1.409-6.358-1.859-8.977c-1.144-6.655-8.433-10.091-14.313-11.152c-1.882-0.34-3.841-0.274-5.744-0.243
							c-0.805,0.013-8.403,0.993-8.107,0.113c1.488-4.434,2.048-9.13,2.157-13.783c0.11-4.689,0.249-15.408-6.275-15.648
							c-5.777-0.213-5.975,14.589-5.956,17.783c0.487-0.08,0.974-0.161,1.461-0.241c-0.455-2.609-3.762-4.243-6.215-2.869
							c-5.694,3.19-3.014,10.754-5.432,15.779c-0.369,0.767,1.098,0.814,1.394,0.198c0.991-2.06,1.297-3.975,1.437-6.27
							c0.021-0.985,0.076-1.967,0.164-2.948c0.066-0.448,0.132-0.896,0.198-1.344c0.491-4.222,2.826-4.941,7.005-2.157
							c0.115,0.66,1.464,0.375,1.461-0.241c-0.024-4.039,0.452-7.852,1.512-11.759c0.374-1.378,1.89-6.981,5.193-3.682
							c1.203,1.201,1.503,3.454,1.827,5.031c1.611,7.847,0.652,16.069-1.875,23.597c-0.136,0.405,0.238,0.723,0.641,0.66
							c10.02-1.559,24.359-2.674,28.019,9.568c1.103,3.688,0.21,7.101,2.831,10.263c2.856,3.446,7.837,3.157,9.962,7.671
							c-1.523,3.321-3.571,4.534-6.145,3.639c-0.93-0.209-1.871-0.305-2.824-0.286c-1.099-0.047-2.176,0.245-3.236,0.48
							c-3.887,0.86-7.352,3.408-11.08,4.744c-9.86,3.534-20.129-4.031-24.798-12.165C163.676,207.542,162.304,208.111,162.7,208.8
							L162.7,208.8z"/>
					</g>
					<g>
						<path style="fill:#564A47;" d="M218.345,198.687c3.626-2.262,7.505-2.768,11.617-2.9c0.552-0.018,1.159-0.102,1.682-0.306
							c1.821-0.709,2.46-2.389,2.734-4.173c1.234-8.046-10.181-5.575-13.985-6.689c-7.027-2.059-11.55-9.008-18.635-11.293
							c-5.272-1.7-11.149-0.381-15.82,2.286c-0.844,0.482,0.467,0.531,0.865,0.304c8.706-4.97,16.302-1.894,23.363,3.595
							c3.06,2.379,6.454,5.394,10.41,6.123c2.027,0.374,3.822,0.308,5.878,0.152c6.383-0.486,9.123,9.316,2.953,9.255
							c-4.413-0.044-8.182,1.006-11.928,3.342C216.654,198.898,217.951,198.933,218.345,198.687L218.345,198.687z"/>
					</g>
					<g>
						<path style="fill:#564A47;" d="M168.305,205.309c4.441,5.729,11.747,10.904,19.422,8.779c1.019-0.282,5.284-1.261,5.247-2.765
							c-0.064-2.599-3.807-2.299-5.609-2.041c-0.686,0.098-1.209,0.921-0.204,0.778c0.327,3.691-1.292,4.82-4.858,3.387
							c-1.915-0.245-3.617-1.074-5.298-1.941c-2.979-1.537-5.333-4.151-7.352-6.756
							C169.357,204.368,167.961,204.865,168.305,205.309L168.305,205.309z"/>
					</g>
					<g>
						<path style="fill:#564A47;" d="M169.722,198.282c6.044,0.611,13.664,1.453,19.135-1.994c1.524-0.96,4.557-3.402,2.69-5.486
							c-1.887-2.107-4.283-1.826-6.867-1.409c-0.582,0.094-1.288,0.703-0.269,0.538c3.111-0.954,5.142-0.222,6.095,2.198
							c1.726,4.166-6.887,5.696-9.975,5.992c-3.263,0.313-6.625-0.105-9.871-0.433C170.35,197.657,168.995,198.209,169.722,198.282
							L169.722,198.282z"/>
					</g>
				</g>
				<path style="fill:#CADAD5;" d="M411.404-18.042c24.481-4.295,48.395,13.56,59.86,35.612c4.893,9.411,8.165,19.675,13.943,28.57
					c9.972,15.35,27.439,25.57,45.706,26.742c18.019,1.157,35.489-5.943,51.708-13.877c16.219-7.934,32.298-16.961,50.073-20.13
					s38.131,0.799,49.357,14.94c7.229,9.107,9.922,21.337,17.862,29.83c11.529,12.331,30.46,13.376,47.334,12.924
					c16.875-0.452,35.377-1.069,48.677,9.327V-58.188L410.599-36.654L411.404-18.042z"/>
				<path style="fill:#E4B39D;" d="M-58.516,341.439c17.671,6.152,37.019,2.607,55.73,2.66c18.711,0.053,40.019,5.742,48.125,22.606
					c7.752,16.128,0.506,36.833,9.484,52.313c10.682,18.419,37.546,19.175,53.255,33.549c12.417,11.362,15.8,31.419,7.796,46.226
					c-3.676,6.8-9.335,12.34-13.234,19.014c-3.899,6.674-5.784,15.503-1.489,21.93H-62.528L-58.516,341.439z"/>
				<path style="fill:#BF512D;" d="M530.23,568.347c12.884-9.631,21.897-24.299,24.668-40.145
					c2.065-11.807,0.772-23.909,0.985-35.893c0.212-11.985,2.214-24.59,9.73-33.926c10.726-13.323,29.74-16.54,46.826-15.732
					c17.085,0.808,34.301,4.65,51.13,1.594c13.799-2.506,26.692-9.749,36.009-20.231c7.091-7.977,12.07-17.632,19.029-25.725
					c10.999-12.793,26.931-21.232,43.694-23.143l37.445,129.112l-273.098,65.437"/>
				<g>
					<path style="fill:#564A47;" d="M-12.809,101.113c6.942,11.852,16.52,21.564,26.848,30.497
						c10.649,9.21,21.884,17.329,35.186,22.208c25.791,9.461,54.65,8.03,77.427,25.223c11.018,8.316,17.793,20.446,17.253,34.398
						c-0.577,14.891-9.447,28.503-16.973,40.821c-13.391,21.917-28.949,45.753-23.16,72.646
						c4.732,21.981,22.554,38.489,38.915,52.476c9.62,8.224,19.406,16.249,27.951,25.623c8.389,9.203,14.89,19.96,19.681,31.424
						c9.621,23.023,9.804,47.098,4.641,71.155c-2.498,11.64-4.531,23.649,0.749,34.806c3.563,7.529,10.498,13.235,18.979,13.491
						c0.396,0.012,0.9-0.579,0.31-0.596c-15.871-0.479-22.209-17.686-21.743-31.138c0.259-7.483,2.229-14.884,3.762-22.175
						c1.5-7.134,2.366-14.305,2.539-21.592c0.614-25.927-8.586-51.783-24.815-71.901c-17.714-21.961-43.51-35.755-59.755-59.12
						c-8.248-11.864-12.633-25.565-11.436-40.041c1.161-14.031,7.783-27.125,14.659-39.149
						c10.887-19.041,27.692-38.738,26.547-61.937c-0.939-19.026-17.691-32.05-33.73-39.076
						c-22.066-9.667-47.164-9.008-69.151-19.124c-11.53-5.305-21.539-13.838-30.939-22.218
						c-8.882-7.919-16.915-16.773-22.946-27.071C-12.194,100.427-13.029,100.738-12.809,101.113L-12.809,101.113z"/>
				</g>
				<g>
					<path style="fill:#564A47;" d="M246.263-41.428c29.579-0.548,54.53,16.496,67.848,42.299
						c11.865,22.987,15.78,49.207,30.609,70.793c6.538,9.517,15.216,17.544,25.934,22.03c10.546,4.414,22.259,3.845,33.037,0.696
						c25.319-7.397,43.173-28.489,62.51-45.039c8.206-7.024,17.041-13.343,26.947-17.739c11.043-4.899,22.993-5.878,34.909-4.911
						c20.395,1.654,39.972,8.74,60.514,9.252c19.394,0.483,35.166-7.95,49.607-20.227c17.68-15.031,35.002-35.308,60.187-35.378
						c0.291-0.001,0.937-0.444,0.352-0.442c-26.064,0.073-44.165,21.216-62.48,36.787c-12.425,10.564-26.097,17.878-42.637,18.759
						c-13.805,0.735-27.622-2.576-41.052-5.315c-12.618-2.574-25.355-4.871-38.284-4.067c-11.116,0.691-21.542,4.604-31.074,10.208
						c-23.37,13.738-39.679,36.556-63.073,50.356c-11.166,6.587-23.856,10.745-36.915,9.603
						c-10.32-0.903-19.628-6.003-27.226-12.808c-15.213-13.624-22.457-33.663-28.96-52.421
						c-6.712-19.362-13.697-39.08-28.957-53.487c-13.712-12.945-32.708-19.738-51.442-19.391
						C246.325-41.865,245.678-41.417,246.263-41.428L246.263-41.428z"/>
				</g>
				<g>
					<path style="fill:#564A47;" d="M844.94,133.002c-38.295,48.98-103.253,63.006-162.426,63.221
						c-0.307,0.001-0.932,0.468-0.345,0.466c59.568-0.217,125.029-14.381,163.577-63.685
						C845.975,132.711,845.104,132.793,844.94,133.002L844.94,133.002z"/>
				</g>
				<g>
					<g>
						<path style="fill:#564A47;" d="M631.388,211.182c11.58-3.57,23.783-6.045,35.878-3.871c5.617,1.01,10.791,3.458,15.287,6.928
							c3.271,2.525,5.301,7.825,9.694,8.252c1.028,0.1,4.92,0.076,5.308,0.917c1.702,3.688-4.003,5.593-7.298,4.789
							c-2.305-0.563-4.488-1.753-6.724-2.549c-3.622-1.289-7.403-0.249-11.006,0.609c-4.749,1.131-9.183,3.451-13.448,5.751
							c-7.54,4.067-14.641,7.965-23.066,9.966c-0.07,0.017-0.774,0.238-0.667,0.41c3.127,5.018,6.607,9.17,7.253,15.253
							c0.873,8.223-3.55,16.639-7.624,23.463c-3.507,5.874-7.827,11.253-12.046,16.62c-2.143,2.726-4.398,5.385-6.147,8.386
							c-1.509,2.589-4.317,11.103-8.629,7.654c-2.407-1.925,3.527-12.133,3.926-15.037c0.91-6.624-3.188-10.392-7.343-14.883
							c-8.67-9.372-18.709-20.496-11.6-33.747c0.1-0.187-1.234-0.102-1.428,0.26c-5.732,10.683-0.33,20.216,6.811,28.612
							c3.904,4.591,9.613,8.932,11.881,14.585c2.468,6.151-3.166,13.977-4.518,19.887c-0.024,0.047-0.014,0.086,0.031,0.115
							c5.681,4.545,9.193-1.287,11.536-6.194c2.686-5.626,7.337-10.389,11.121-15.301c4.182-5.429,8.031-11.072,11.133-17.192
							c2.801-5.527,4.494-11.406,4.345-17.615c-0.07-2.917-1.189-5.62-2.579-8.128c-0.367-0.663-4.872-6.827-3.672-7.112
							c12.588-2.989,22.521-11.804,34.846-15.321c4.092-1.168,7.899-1.246,11.839,0.321c1.907,0.758,3.727,1.533,5.724,2.02
							c2.196,0.536,5.096,0.165,7.013-1.097c1.252-0.824,1.969-1.194,2.487-2.6c0.184-0.5-0.542-2.897-1.09-2.961
							c-2.929-0.339-6.885,0.27-8.742-2.432c-1.36-1.978-3.144-3.698-4.905-5.307c-14.42-13.18-36.869-9.068-53.695-3.881
							C630.444,211.006,630.55,211.44,631.388,211.182L631.388,211.182z"/>
					</g>
					<g>
						<path style="fill:#564A47;" d="M601.461,239.923c-5.584,7.869-7.314,18.241-2.236,26.8c2.835,4.779,8.409,7.147,11.648,11.615
							c2.517,3.472,1.102,8.778,6.143,9.872c2.497,0.542,5.088-2.868,5.545-4.872c0.966-4.231-0.565-8.69,3.165-12.123
							c2.047-1.884,4.985-2.541,6.868-4.667c8.282-9.348,1.794-21.16-3.994-29.857c-0.239,0.296-0.478,0.593-0.717,0.889
							c5.031-0.542,9.803-1.768,14.486-3.689c3.748-1.537,10.318-4.472,12.27-8.295c5.262-10.311-15.258-3.401-18.399-1.929
							c0.272,0.272,0.545,0.544,0.817,0.816c2.066-1.429,2.559-4.909,0.269-6.571c-5.223-3.79-11.182,1.825-16.621,1.738
							c-0.852-0.014-1.09,1.107-0.112,1.122c1.786,0.029,3.325-0.151,5.027-0.814c1.441-0.561,2.881-1.123,4.321-1.688
							c3.214-1.18,10.962,2.162,6.141,5.496c-0.753,0.521,0.235,1.089,0.817,0.816c3.108-1.457,6.229-2.501,9.574-3.223
							c4.069-1.675,5.69,0.321,4.863,5.989c-1.516,1.348-3.543,2.466-5.259,3.47c-5.51,3.223-11.771,4.959-18.079,5.639
							c-0.39,0.042-1.032,0.415-0.717,0.889c5.558,8.353,12.757,21.07,3.175,29.525c-2.253,1.988-6.304,2.838-7.675,5.823
							c-0.724,1.577-1.013,2.846-1.183,4.604c-0.034,1.068-0.061,2.136-0.081,3.204c-0.041,1.885-2.4,9.996-6.411,5.153
							c-1.949-2.353-1.76-6.385-3.688-9.044c-2.405-3.317-6.338-5.442-9.182-8.352c-7.356-7.529-5.061-20.097,0.45-27.862
							C603.226,239.634,601.87,239.346,601.461,239.923L601.461,239.923z"/>
					</g>
					<g>
						<path style="fill:#564A47;" d="M618.413,203.482c2.095-13.703,1.317-28.202-5.415-40.588
							c-2.657-4.889-6.541-9.014-11.314-11.866c-2.862-1.71-5.931-2.617-6.706-6.306c-0.256-1.219-0.21-5.011-1.916-5.436
							c-2.523-0.628-4.077,1.528-5.046,3.629c-2.502,5.426,0.449,9.129,4.037,12.866c6.032,6.283-0.162,17.941-2.345,24.711
							c-2.589,8.031-3.874,16.461-3.97,24.887c0.467-0.154,0.934-0.308,1.402-0.461c-10.036-8.321-23.454-4.52-33.31,2.044
							c-7.468,4.974-12.693,12.407-18.246,19.284c-3.279,4.061-6.918,7.468-11.028,10.66c-2.665,2.069-4.901,4.485-5.258,7.949
							c-0.453,4.403,5.158,2.878,7.192,1.721c1.45-0.825,2.714-2.169,3.945-3.275c4.324-3.884,8.684-3.567,13.532-1.87
							c4.636,1.623,8.726,4.717,12.829,7.345c11.676,7.481,24.318,7.642,34.319-2.712c0.378-0.392-1.051-0.261-1.333,0.031
							c-6.675,6.911-15.198,9.325-24.305,6.066c-5.468-1.957-10.004-5.972-15.029-8.78c-3.761-2.102-8.697-4.617-13.195-4.112
							c-2.014,0.226-3.52,0.698-5.286,1.738c-0.938,0.552-1.853,1.437-2.67,2.143c-2.329,2.011-9.037,6.143-8.424,0.191
							c0.354-3.444,4.459-6.043,6.999-7.943c2.137-1.599,4.004-3.472,5.821-5.416c4.569-4.889,8.333-10.481,12.807-15.459
							c9.389-10.448,26.711-19.497,39.286-9.071c0.315,0.261,1.396,0.006,1.402-0.461c0.089-7.812,1.327-15.402,3.421-22.917
							c1.8-6.459,4.777-12.591,5.305-19.35c0.404-5.177-2.933-7.525-5.9-11.075c-1.851-2.215-1.524-5.335-0.906-7.923
							c0.146-0.609,2.111-5.415,3.575-2.729c0.626,1.148,0.64,2.848,0.846,4.114c0.81,4.972,6.048,5.724,9.63,8.317
							c4.223,3.057,7.262,7.529,9.577,12.121c5.845,11.595,6.158,25.585,4.238,38.148
							C616.9,204.176,618.349,203.907,618.413,203.482L618.413,203.482z"/>
					</g>
					<g>
						<path style="fill:#564A47;" d="M594.138,238.03c-8.168,8.657-20.261,10.91-29.804,3.327c-2.567-2.039-4.911-4.145-7.916-5.522
							c-3.387-1.553-12.242,0.505-10.054-5.923c1.278-3.756,8.403-3.97,11.611-5.575c2.167-1.084,3.138-3.521,3.906-5.639
							c2.675-7.38,7.678-11.104,16.037-10.663c4.942,0.261,9.789,2.432,14.304,4.288c0.28,0.115,1.351-0.072,1.313-0.499
							c-0.675-7.588,0.347-14.886,3.037-22.001c0.478-1.264,3.979-9.787,7.037-4.75c0.671,1.106,0.604,3.001,0.695,4.213
							c0.3,3.995-0.308,7.992-1.259,11.86c-0.105,0.427,1.287,0.115,1.436-0.23c2.204-5.1,5.546,0.606,6.017,1.972
							c0.567,1.645,0.155,3.579-0.115,5.244c-0.46,2.831-1.001,5.1-0.386,7.938c0.082,0.38,1.537,0.02,1.449-0.388
							c-0.759-3.504,3.529-15.243-2.353-16.748c-2.408-0.616-4.973-0.273-6.047,2.213c0.479-0.077,0.957-0.153,1.436-0.23
							c1.084-4.407,4.327-20.868-4.583-17.77c-3.498,1.217-4.94,7.236-5.924,10.168c-2.034,6.063-2.449,12.571-1.887,18.899
							c0.438-0.166,0.875-0.332,1.313-0.499c-9.121-3.748-18.981-6.927-27.841-0.934c-6.595,4.461-3.498,12.68-13.181,14.805
							c-2.687,0.589-7.887,2.195-7.862,5.826c0.015,2.157,0.821,3.007,2.68,3.86c0.595,0.273,2.193,0.342,2.805,0.387
							c2.809,0.209,4.979,0.501,7.512,1.962c4.99,2.877,8.216,7.233,14.004,8.775c8.62,2.297,18.14-2.273,23.945-8.425
							C595.812,237.598,594.4,237.753,594.138,238.03L594.138,238.03z"/>
					</g>
					<g>
						<path style="fill:#564A47;" d="M606.051,234.793c-5.63,6.515-11.363,12.905-17.874,18.559
							c0.458-0.058,0.915-0.116,1.373-0.174c2.285-9.376,6.629-17.502,12.829-24.876c3.181-3.783,6.588-7.392,9.892-11.067
							c2.619-2.913,6.199-5.883,8.245-9.219c0.798-1.302,0.918-2.687,1.277-4.154c0.649-2.494,2.676-3.428,6.081-2.802
							c1.173,1.203,1.555,2.624,1.146,4.264c-0.351,2.661-5.198,4.34-6.657,6.954c-2.276,4.077-3.787,7.765-6.834,11.496
							C612.466,227.523,609.212,231.127,606.051,234.793c-0.308,0.357,1.084,0.169,1.315-0.098
							c3.854-4.47,7.845-8.854,11.467-13.517c3.487-4.488,4.329-9.861,9.445-12.942c5.114-3.08,0.882-11.07-4.33-8.24
							c-3.106,1.687-3.426,4.254-4.367,7.462c-0.704,2.401-4.446,5.228-6.101,7.069c-2.523,2.806-5.045,5.611-7.568,8.417
							c-8.233,9.157-14.826,18.316-17.792,30.483c-0.105,0.433,1.22-0.041,1.373-0.174c6.512-5.655,12.245-12.044,17.874-18.559
							C607.674,234.338,606.281,234.526,606.051,234.793z"/>
					</g>
					<g>
						<path style="fill:#564A47;" d="M626.704,199.792c3.612-7.759,6.47-15.722,6.209-24.387
							c-0.158-5.267-3.039-16.434-9.467-17.744c-4.695-0.957-7.381,1.982-6.39,6.677c0.502,2.378,4.746,6.379,6.733,3.104
							c0.062-0.102,0.086-0.151,0.011-0.251c-0.11-0.147-0.221-0.294-0.331-0.442c-0.254-0.339-1.65,0.139-1.354,0.534
							c-0.642-0.104-1.284-0.208-1.926-0.313c-0.831-0.871-1.393-1.878-1.684-3.021c-1.083-2.967,0.899-4.452,5.947-4.454
							c0.643,0.534,1.228,1.126,1.754,1.775c3.165,3.537,4.511,8.351,5.129,12.935c1.203,8.922-2.388,17.889-6.071,25.801
							C625.1,200.359,626.509,200.212,626.704,199.792L626.704,199.792z"/>
					</g>
					<g>
						<path style="fill:#564A47;" d="M630.405,202.817c4.824-5.683,11.269-9.082,18.089-11.824
							c4.421-1.777,9.043-2.588,13.782-2.012c2.409,0.293,4.595,1.335,6.618,2.603c4.223,2.526,2.824,4.786-4.196,6.778
							c-1.363-1.309-1.705-2.991-1.024-5.045c-0.389-0.13-0.778-0.259-1.166-0.389c-0.205,0.429-0.409,0.858-0.614,1.288
							c-0.35,0.734,1.115,0.705,1.38,0.147c0.205-0.429,0.409-0.858,0.614-1.288c0.342-0.718-0.85-0.584-1.166-0.389
							c-4.589,2.834,2.492,8.46,5.768,8.704c1.927,0.144,3.634-1.107,4.772-2.499c1.925-2.355-0.378-5.459-1.965-7.107
							c-11.031-11.457-34.173,1.295-42.098,10.63C628.609,203.111,629.996,203.299,630.405,202.817L630.405,202.817z"/>
					</g>
					<g>
						<path style="fill:#564A47;" d="M614.829,237.86c1.285,6.615,2.949,17.738,9.417,21.424c1.196,0.682,3.56,0.863,4.678-0.061
							c2.36-1.95,1.41-3.888-0.388-6.084c-0.419-0.512-1.797,0.064-1.326,0.639c0.294,0.36,0.589,0.719,0.883,1.079
							c-2.114,3.623-3.974,4.01-5.582,1.161c-1.42-1.748-2.104-4.231-2.894-6.315c-1.502-3.959-2.534-8.081-3.34-12.231
							C616.147,236.796,614.695,237.17,614.829,237.86L614.829,237.86z"/>
					</g>
					<g>
						<path style="fill:#564A47;" d="M606.389,244.971c-1.79,5.275-1.709,10.326-0.693,15.763
							c0.638,3.417,1.653,10.012,5.305,11.718c5.101,2.382,11.27,0.587,7.233-6.155c-0.239-0.399-1.601,0.134-1.449,0.388
							c0.562,0.774,0.972,1.622,1.229,2.544c-0.953,3.312-2.483,4.379-4.592,3.199c-3.649-1.265-4.441-5.342-5.414-8.586
							c-1.881-6.277-2.309-12.845-0.185-19.104C607.943,244.387,606.526,244.57,606.389,244.971L606.389,244.971z"/>
					</g>
					<g>
						<path style="fill:#564A47;" d="M588.617,233.916c-2.92,2.187-5.815,4.267-9.223,5.653c-3.091,1.256-15.654,0.56-10.922-6.301
							c0.132-0.192-1.183-0.122-1.433,0.24c-3.774,5.472,4.193,7.69,8.213,7.517c5.455-0.234,10.317-3.906,14.485-7.028
							C590.34,233.546,588.889,233.713,588.617,233.916L588.617,233.916z"/>
					</g>
					<g>
						<path style="fill:#564A47;" d="M589.342,223.709c-4.682,1.993-9.391,2.895-14.488,2.773c-1.953-0.047-3.894-0.391-5.763-0.943
							c-5.079-1.5-4.756-7.531,0.678-9.262c0.875-0.279,0.623-1.272-0.265-0.989c-5.081,1.619-7.946,7.22-2.569,10.647
							c6.222,3.966,16.915,1.236,23.049-1.375C590.898,224.17,590.085,223.393,589.342,223.709L589.342,223.709z"/>
					</g>
				</g>
				<g>
					<g>
						<path style="fill:#564A47;" d="M460.474,377.229c-5.087,11.72-9.842,22.228-10.532,35.219c0.466-0.125,0.931-0.25,1.397-0.374
							c-8.075-9.034-20.231-14.24-32.422-12.694c-15.355,1.947-25.167,13.349-38.348,20.108c-3.498,1.794-10.982,2.583-12.823,6.885
							c-1.307,3.054-0.271,7.901,3.977,7.657c4.005-0.23,7.004-2.536,9.752-5.321c2.505-2.539,7.843,1.625,10.498,2.627
							c4.254,1.607,7.222,4.447,10.559,7.393c0.345,0.305,1.684-0.246,1.353-0.538c-3.454-3.049-6.411-5.801-10.745-7.5
							c-2.823-1.107-5.166-2.505-7.634-4.247c-0.44-0.31-1.32-0.265-1.866-0.118c-4.134,1.108-11.468,12.509-14.968,3.896
							c-2.571-6.328,8.617-8.442,12.769-10.4c11.585-5.463,20.079-15.731,32.826-19.004c13.099-3.363,26.921,1.951,35.718,11.794
							c0.234,0.262,1.377,0.013,1.397-0.374c0.69-12.99,5.445-23.499,10.532-35.219C462.078,376.643,460.66,376.801,460.474,377.229
							L460.474,377.229z"/>
					</g>
					<g>
						<path style="fill:#564A47;" d="M486.118,398.282c-0.371-9.476-2.294-18.736-6.433-27.304c-1.73-3.582-4.04-6.829-6.664-9.803
							c-3.285-3.722-8.25-5.914-9.764-10.923c-1.006-3.329,0.118-10.007-5.454-7.771c-6.085,2.442-2.981,11.823-0.54,15.313
							c0.27,0.387,1.597-0.176,1.449-0.388c-2.083-2.979-3.515-5.903-2.826-9.639c0.192-1.039,0.609-2.008,1.034-2.966
							c2.508-1.789,3.925-1.726,4.251,0.188c0.163,0.668,0.272,1.345,0.327,2.031c0.334,2.765,0.345,4.773,2.032,7.173
							c1.517,2.158,4.106,3.682,6.06,5.414c10.741,9.522,14.539,25.29,15.079,39.062
							C484.681,398.98,486.136,398.729,486.118,398.282L486.118,398.282z"/>
					</g>
					<g>
						<path style="fill:#564A47;" d="M484.578,423.68c2.866-14.191,2.667-29.604-4.47-42.56c-2.52-4.575-6.219-8.392-10.679-11.083
							c-2.783-1.679-4.884-2.499-5.461-6.083c-0.201-1.251,0.042-4.954-1.646-5.462c-2.159-0.649-3.807,1.089-4.89,2.795
							c-3.731,5.88,0.489,10.093,3.798,14.568c4.733,6.401-1.87,17.44-4.215,23.674c-2.965,7.885-4.66,16.243-5.157,24.641
							c0.47-0.144,0.939-0.289,1.409-0.433c-9.608-8.774-23.247-5.496-33.349,0.556c-7.725,4.628-13.312,11.813-19.208,18.44
							c-3.506,3.94-7.265,7.12-11.565,10.142c-2.753,1.934-5.027,4.225-5.545,7.639c-0.671,4.428,5.249,2.761,7.224,1.76
							c1.465-0.743,2.81-2.052,4.061-3.073c4.427-3.61,8.752-2.997,13.433-1.102c4.121,1.668,7.749,4.562,11.328,7.136
							c11.696,8.414,24.54,10.133,35.617-0.289c0.279-0.262-1.064-0.088-1.304,0.138c-7.353,6.918-16.582,8.588-25.611,4.34
							c-5.759-2.71-10.521-7.31-16.02-10.491c-3.442-1.991-8.154-3.829-12.216-3.058c-4.136,0.785-12.727,10.087-14.95,5.355
							c-2.416-5.145,9.358-11.222,12.355-13.966c5.328-4.879,9.614-10.824,14.688-15.955c9.962-10.073,27.612-18.126,39.694-7.094
							c0.219,0.2,1.39-0.115,1.409-0.433c0.462-7.794,2.058-15.349,4.509-22.755c1.963-5.932,4.835-11.508,6.051-17.676
							c1.275-6.467-2.933-8.84-5.794-13.756c-1.257-2.159-0.433-5.419,0.297-7.54c0.19-0.553,2.159-4.63,3.501-1.862
							c0.57,1.177,0.503,2.876,0.648,4.149c0.537,4.697,5.07,5.632,8.415,8.093c4.641,3.415,7.761,8.533,10.004,13.74
							c5.08,11.793,4.683,25.555,2.191,37.893C483.109,424.166,484.492,424.103,484.578,423.68L484.578,423.68z"/>
					</g>
					<g>
						<path style="fill:#564A47;" d="M483.419,422.608c-3.146,11.271-13.213,17.479-19.656,26.64
							c-4.868,6.922-14.426,19.438-9.077,28.155c0.084,0.136,0.275,0.132,0.417,0.123c4.685-0.327,5.158-4.994,5.638-8.977
							c0.521-4.319,0.633-8.514,2.386-12.559c1.631-3.763,4.99-6.606,8.188-8.993c6.377-4.76,30.371-17.653,13.411-24.804
							c-0.337-0.142-1.657,0.391-1.183,0.591c15.745,6.639-5.735,18.895-12.29,23.377c-3.098,2.118-6.342,4.674-8.332,7.908
							c-3.114,5.062-3.121,10.646-3.813,16.372c-0.191,1.582-2.383,8.734-4.228,4.078c-1.033-2.608-0.109-5.72,0.711-8.246
							c1.815-5.591,5.38-11.012,8.62-15.865c6.527-9.777,17.348-16.246,20.64-28.039
							C484.951,422.015,483.527,422.219,483.419,422.608L483.419,422.608z"/>
					</g>
					<g>
						<path style="fill:#564A47;" d="M484.163,422.209c11.717,8.002,33.339-4.011,27.363-18.875
							c-1.412-3.512-8.027-7.678-11.637-4.745c-3.689,2.998-1.347,8.649,3.021,5.593c0.807-0.565-0.389-1.014-0.95-0.622
							c-0.606-4.253,0.47-5.654,3.228-4.203c1.675,0.556,3.067,1.829,4.161,3.157c3.357,4.077,1.692,10.097-0.986,13.916
							c-4.809,6.857-16.116,9.719-23.076,4.965C484.781,421.051,483.495,421.753,484.163,422.209L484.163,422.209z"/>
					</g>
					<g>
						<path style="fill:#564A47;" d="M484.17,422.249c7.911,0.079,13.46-6.778,18.173-12.324c6.84-8.049,9.818-17.783,5.64-27.82
							c-1.682-4.042-7.738-12.261-12.954-8.189c-5.433,4.241-0.313,9.931,5.161,7.972c0.089-0.032,0.748-0.349,0.349-0.429
							c-0.499-0.099-0.998-0.199-1.497-0.298c-0.334-0.066-1.584,0.472-1.193,0.55c-2.838-0.565-4.165-2.468-3.604-5.307
							c1.367-6.908,8.521,0.297,9.923,2.061c3.267,4.112,4.498,9.511,4.433,14.652c-0.067,5.306-2.708,10.219-5.652,14.454
							c-3.577,5.145-10.906,14.171-17.836,14.102C484.82,421.67,483.464,422.241,484.17,422.249L484.17,422.249z"/>
					</g>
					<g>
						<path style="fill:#564A47;" d="M458.854,456.793c-7.165,6.901-18.034,10.119-26.993,4.649
							c-3.133-1.913-5.566-4.916-8.501-7.113c-2.638-1.976-5.558-2.289-8.732-2.603c-2.811-4.942-2.217-7.594,1.78-7.958
							c0.902-0.165,1.805-0.323,2.71-0.472c1.438-0.244,2.681-0.667,4-1.25c2.668-1.179,3.77-4.362,4.733-6.842
							c5.228-13.462,20.693-8.099,30.332-3.588c0.353,0.165,1.168-0.07,1.148-0.558c-0.286-7.001,0.818-13.635,3.367-20.176
							c0.439-1.068,0.919-2.118,1.438-3.149c0.518-0.89,1.036-1.78,1.554-2.669c4.37-1.016,6.193,0.241,5.468,3.771
							c0.108,3.971-0.67,7.933-1.796,11.719c-0.253,0.85,1.102,0.794,1.394,0.198c3.512-1.65,5.496-0.946,5.95,2.112
							c0.462,1.582-0.054,3.59-0.388,5.164c-0.59,2.782-1.216,5.145-0.743,7.979c0.119,0.712,1.571,0.34,1.449-0.388
							c-0.656-3.928,4.074-13.658-0.727-16.461c-2.493-1.455-5.549-1.432-6.935,1.396c0.465,0.066,0.929,0.132,1.394,0.198
							c1.142-3.842,5.378-21.101-3.593-18.454c-3.53,1.042-5.367,7.122-6.488,10c-2.329,5.978-3.077,12.483-2.817,18.854
							c0.383-0.186,0.766-0.372,1.148-0.558c-9.337-4.369-20.956-8.706-29.589-0.535c-1.429,1.353-2.227,3.168-2.962,4.947
							c-1.813,4.39-4.072,6.631-8.979,7.464c-3.83,0.65-7.921,2.376-8.102,6.783c-0.139,3.395,5.055,3.625,7.167,3.801
							c6.773,0.566,9.935,7.24,15.537,10.059c9.427,4.743,20.434,1.441,27.747-5.603C460.535,456.83,459.407,456.26,458.854,456.793
							L458.854,456.793z"/>
					</g>
					<g>
						<path style="fill:#564A47;" d="M410.41,432.102c-2.809-3.177-6.024-5.129-10.098-6.243c-2.61-0.849-3.606-2.452-2.988-4.81
							c0.51-3.878,5.535-3.93,8.472-2.827c2.022,0.759,3.994,0.988,6.139,0.916c3.674-0.124,7.337-1.869,10.678-3.21
							c8.388-3.367,16.577-3.064,23.092,3.667c0.331,0.342,1.702-0.187,1.35-0.551c-4.012-4.145-9.825-6.915-15.724-6.224
							c-3.261,0.382-6.23,1.379-9.275,2.571c-2.336,0.915-4.614,1.839-7.034,2.527c-4.277,1.216-7.193-0.217-11.027-1.366
							c-3.659-1.097-6.903,1.406-8.116,4.695c-0.796,2.158,0.416,4.149,2.282,5.046c1.634,0.785,3.591,1.013,5.28,1.796
							c2.24,1.038,4.013,2.749,5.618,4.565C409.372,433.005,410.754,432.491,410.41,432.102L410.41,432.102z"/>
					</g>
					<g>
						<path style="fill:#564A47;" d="M454.331,452.166c-3.812,2.752-7.716,4.532-12.504,4.66c-1.863-0.037-3.657-0.409-5.381-1.116
							c-0.434-0.208-0.869-0.416-1.303-0.624c-3.124-1.163-3.013-2.201,0.335-3.114c0.417,0.189,1.747-0.421,1.156-0.688
							c-3.79-1.716-9.906,0.01-3.874,3.734c7.564,4.67,15.944,2.265,22.727-2.631C456.147,451.91,454.688,451.908,454.331,452.166
							L454.331,452.166z"/>
					</g>
					<g>
						<path style="fill:#564A47;" d="M456.306,444.892c-3.802-0.698-7.547-1.471-11.137-2.946c-1.767-0.726-3.348-1.773-4.837-2.953
							c-0.887-0.714-1.621-1.569-2.201-2.562c-0.136-0.349-0.272-0.697-0.409-1.046c1.582-3.109,3.531-3.764,5.847-1.964
							c0.386,0.183,1.532-0.415,1.365-0.494c-3.008-1.426-9.148-2.382-8.661,2.847c0.297,3.187,5.106,5.538,7.531,6.668
							c3.533,1.647,7.509,2.317,11.312,3.015C455.458,445.518,456.711,444.967,456.306,444.892L456.306,444.892z"/>
					</g>
				</g>
				<g>
					<path style="fill:#564A47;" d="M577.08,268.198c-16.454,22.953,0.495,51.305,7.45,74.364
						c4.082,13.534,4.204,27.31-2.085,40.154c-5.699,11.641-15.882,20.694-26.119,28.286
						c-19.442,14.419-42.265,23.917-58.604,42.336c-7.13,8.037-12.526,18.184-13.572,28.995c-1.239,12.81,1.771,25.436,3.134,38.11
						c1.176,10.928,0.512,22.033-6.545,30.955c-0.19,0.24,0.655,0.124,0.792-0.048c15.794-19.966,0.778-47.97,3.671-70.676
						c3.268-25.651,27.88-42.093,48.117-54.41c19.541-11.893,41.265-24.488,51.172-46.201c12.164-26.657-7.333-52.446-12.263-78.203
						c-2.216-11.575-1.386-23.903,5.643-33.71C578.054,267.896,577.207,268.021,577.08,268.198L577.08,268.198z"/>
				</g>
				<path style="fill:#CADAD5;" d="M-23.854,285.01c-6.187-0.856-9.636-7.642-10.854-13.769c-3.04-15.286,1.198-30.941,4.441-46.185
					c4.953-23.289,7.624-47.062,7.96-70.869c7.122,2.433,13.996,5.629,21.29,7.484c13.333,3.391,27.5,2.165,40.859,5.454
					c13.359,3.289,26.887,13.552,26.708,27.309c-0.16,12.325-11.089,21.756-22.102,27.292c-11.013,5.536-23.423,9.241-31.969,18.123
					c-11.109,11.546-13.494,29.678-25.229,40.587C-15.783,283.255-19.754,285.578-23.854,285.01z"/>
				<path style="fill:#564A47;" d="M625.538,351.53c-6.465,5.1-5.587,17.354-2.595,23.951c6.458,14.239,27.493,20.74,41.862,20.779
					c5.252,0.014,10.947-0.936,14.552-4.756c4.05-4.291,4.036-11.777-0.031-16.053c-6.37-6.697-18.387-4.134-25.327-10.239
					c-2.953-2.598-4.528-6.406-7.074-9.404c-3.664-4.313-9.419-6.762-15.068-6.412C629.604,349.537,627.312,350.131,625.538,351.53z
					"/>
				<g style="opacity:0.7;">
					<g>
						<path style="fill:#CADAD5;" d="M731.719,23.21c1.728,1.193,3.457,2.386,5.185,3.579c1.128,0.779,3.35-2.42,2.225-3.197
							c-1.728-1.193-3.457-2.386-5.185-3.579C732.815,19.234,730.594,22.433,731.719,23.21L731.719,23.21z"/>
					</g>
					<g>
						<path style="fill:#CADAD5;" d="M751.309,28.197c0.407,0.034,0.813,0.069,1.22,0.103c1.695,0.144,3.199-1.844,3.862-3.149
							c0.428-0.843,1.299-3.466-0.427-3.612c-0.407-0.034-0.813-0.069-1.22-0.103c-1.695-0.144-3.199,1.844-3.862,3.149
							C750.453,25.428,749.583,28.051,751.309,28.197L751.309,28.197z"/>
					</g>
					<g>
						<path style="fill:#CADAD5;" d="M736.308,3.74c0.997,0.297,1.994,0.594,2.991,0.891c1.768,0.526,3.581-1.535,4.209-2.908
							c0.638-1.397,0.753-3.504-1.038-4.037c-0.997-0.297-1.994-0.594-2.991-0.891c-1.768-0.526-3.581,1.535-4.209,2.908
							C734.632,1.1,734.517,3.207,736.308,3.74L736.308,3.74z"/>
					</g>
					<g>
						<path style="fill:#CADAD5;" d="M717.335-3.531c0.723,1.675,1.445,3.349,2.168,5.024c0.736,1.707,2.369,2.012,3.92,1.026
							c1.375-0.875,2.972-3.214,2.226-4.943c-0.723-1.675-1.445-3.349-2.168-5.024c-0.736-1.707-2.369-2.012-3.92-1.026
							C718.187-7.599,716.589-5.26,717.335-3.531L717.335-3.531z"/>
					</g>
					<g>
						<path style="fill:#CADAD5;" d="M711.444,24.128c0.622,1.714,1.244,3.429,1.865,5.143c1.521,4.193,7.388-0.562,6.179-3.894
							c-0.622-1.714-1.244-3.429-1.865-5.143C716.102,16.042,710.235,20.796,711.444,24.128L711.444,24.128z"/>
					</g>
					<g>
						<path style="fill:#CADAD5;" d="M700.922,44.057c1.185,0.51,2.37,1.02,3.556,1.529c1.372,0.59,2.884-1.348,3.535-2.284
							c0.528-0.758,0.987-1.618,1.19-2.527c0.08-0.36,0.237-1.361-0.275-1.581c-1.185-0.51-2.37-1.02-3.556-1.529
							c-1.372-0.59-2.884,1.348-3.535,2.284c-0.528,0.758-0.987,1.618-1.19,2.527C700.567,42.836,700.411,43.837,700.922,44.057
							L700.922,44.057z"/>
					</g>
					<g>
						<path style="fill:#CADAD5;" d="M694.427,9.169c1.254-0.303,2.508-0.606,3.762-0.91c1.573-0.38,2.751-2.078,3.499-3.402
							c0.384-0.679,0.764-1.467,0.828-2.259c0.027-0.332-0.077-1.038-0.617-0.908c-1.254,0.303-2.508,0.606-3.762,0.91
							c-1.573,0.38-2.751,2.078-3.499,3.402c-0.384,0.679-0.764,1.467-0.828,2.259C693.784,8.593,693.888,9.299,694.427,9.169
							L694.427,9.169z"/>
					</g>
					<g>
						<path style="fill:#CADAD5;" d="M737.341-17.193c0.967,0.692,1.935,1.385,2.902,2.077c0.454,0.325,1.149-0.095,1.507-0.341
							c0.766-0.525,1.401-1.257,1.928-2.014c0.527-0.757,0.993-1.606,1.219-2.507c0.109-0.435,0.253-1.205-0.204-1.532
							c-0.967-0.692-1.934-1.385-2.902-2.077c-0.454-0.325-1.149,0.095-1.507,0.341c-0.766,0.525-1.401,1.257-1.928,2.014
							c-0.527,0.757-0.993,1.606-1.219,2.507C737.028-18.29,736.884-17.52,737.341-17.193L737.341-17.193z"/>
					</g>
					<g>
						<path style="fill:#CADAD5;" d="M755.62,4.936c-0.144,2.624,0.489,4.968,2.008,7.118c0.57,0.807,5.739-4.569,4.45-6.393
							c-1.131-1.601-1.75-3.604-1.642-5.568c0.091-1.664-1.581-0.311-2.118,0.228C757.222,1.424,755.71,3.294,755.62,4.936
							L755.62,4.936z"/>
					</g>
					<g>
						<path style="fill:#CADAD5;" d="M774.358,29.384c2.55-2.152,2.692-8.904-1.196-5.623
							C770.612,25.913,770.47,32.665,774.358,29.384L774.358,29.384z"/>
					</g>
					<g>
						<path style="fill:#CADAD5;" d="M758.803,44.238c0.558,0.661,1.116,1.323,1.674,1.984c0.462,0.548,0.9,0.81,1.651,0.671
							c0.845-0.156,1.599-0.714,2.181-1.318c0.696-0.724,1.248-1.625,1.528-2.593c0.168-0.581,0.37-1.702-0.084-2.239
							c-0.558-0.661-1.116-1.323-1.674-1.984c-0.462-0.548-0.9-0.81-1.651-0.671c-0.845,0.156-1.599,0.714-2.18,1.318
							c-0.696,0.724-1.249,1.625-1.528,2.593C758.552,42.58,758.35,43.701,758.803,44.238L758.803,44.238z"/>
					</g>
					<g>
						<path style="fill:#CADAD5;" d="M743.713,43.112c-0.297,0.997-0.594,1.994-0.891,2.991c-0.414,1.391,0.087,3.294,1.884,3.014
							c1.867-0.291,3.245-2.197,3.748-3.884c0.297-0.997,0.594-1.994,0.891-2.991c0.414-1.391-0.087-3.294-1.884-3.014
							C745.593,39.519,744.215,41.425,743.713,43.112L743.713,43.112z"/>
					</g>
					<g>
						<path style="fill:#CADAD5;" d="M724.97,36.146c-2.848,1.951-5.426,5.74-5.456,9.29c-0.014,1.705,1.703,0.528,2.339-0.075
							c1.142-1.083,2.627-2.981,2.64-4.655c0.002-0.259,0.018-0.508,0.049-0.764c-0.065,0.54,0.302-0.639-0.04,0.203
							c-0.183,0.449-0.471,0.882-0.78,1.252c-0.025,0.03-0.913,0.792-0.307,0.377c1.449-0.993,2.682-2.838,3.147-4.521
							c0.108-0.392,0.296-1.184-0.144-1.49C725.971,35.453,725.308,35.914,724.97,36.146L724.97,36.146z"/>
					</g>
					<g>
						<path style="fill:#CADAD5;" d="M724.575,61.012c2.183,0.802,4.367,1.604,6.55,2.406c0.613,0.225,1.595-0.445,2.017-0.777
							c0.79-0.622,1.432-1.451,1.882-2.346c0.613-1.218,1.099-3.072-0.492-3.657c-2.183-0.802-4.367-1.604-6.55-2.406
							c-0.613-0.225-1.595,0.445-2.017,0.777c-0.79,0.622-1.432,1.451-1.882,2.346C723.47,58.574,722.983,60.428,724.575,61.012
							L724.575,61.012z"/>
					</g>
					<g>
						<path style="fill:#CADAD5;" d="M766.424-0.864c1.44-0.077,2.881-0.154,4.321-0.231c1.772-0.095,3.119-1.647,3.875-3.14
							c0.369-0.728,0.671-1.599,0.581-2.432c-0.054-0.5-0.403-1.23-1.031-1.196c-1.44,0.077-2.881,0.154-4.321,0.231
							c-1.772,0.095-3.119,1.647-3.875,3.14c-0.369,0.728-0.671,1.599-0.581,2.432C765.447-1.56,765.796-0.83,766.424-0.864
							L766.424-0.864z"/>
					</g>
					<g>
						<path style="fill:#CADAD5;" d="M757.924-5.598c0.406,0.034,0.813,0.069,1.22,0.103c1.803,0.153,3.318-1.56,4.03-3.032
							c0.472-0.976,1.1-3.663-0.723-3.818c-0.407-0.034-0.813-0.069-1.22-0.103c-1.803-0.153-3.318,1.56-4.03,3.032
							C756.729-8.439,756.102-5.752,757.924-5.598L757.924-5.598z"/>
					</g>
					<g>
						<path style="fill:#CADAD5;" d="M772.123,16.57c0.407,0.034,0.813,0.069,1.22,0.103c0.954,0.081,1.734-0.611,2.114-1.447
							c0.256-0.564,0.421-1.949-0.536-2.03c-0.407-0.034-0.813-0.069-1.22-0.103c-0.954-0.081-1.734,0.611-2.114,1.447
							C771.331,15.104,771.167,16.489,772.123,16.57L772.123,16.57z"/>
					</g>
					<g>
						<path style="fill:#CADAD5;" d="M748.218-14.666c-0.232,1.421-0.464,2.841-0.696,4.262c-0.127,0.777,0.133,1.718,1.11,1.624
							c0.91-0.087,1.774-1.031,1.918-1.911c0.232-1.421,0.464-2.841,0.696-4.262c0.127-0.777-0.133-1.718-1.11-1.624
							C749.226-16.489,748.362-15.546,748.218-14.666L748.218-14.666z"/>
					</g>
					<g>
						<path style="fill:#CADAD5;" d="M714.886-25.48c0.558,0.661,1.116,1.323,1.674,1.984c0.607,0.719,1.528,0.403,2.122-0.18
							c0.527-0.518,1.205-1.786,0.605-2.497c-0.558-0.661-1.116-1.323-1.674-1.984c-0.607-0.719-1.528-0.403-2.122,0.18
							C714.965-27.459,714.286-26.191,714.886-25.48L714.886-25.48z"/>
					</g>
					<g>
						<path style="fill:#CADAD5;" d="M706.409-5.862c0.774-0.799,2.073-0.893,3.103-0.726c1.255,0.203,3.146-3.14,1.734-3.369
							c-2.209-0.358-4.228,0.648-5.738,2.206c-0.486,0.502-1.181,1.604-0.828,2.342C705.051-4.632,706.092-5.535,706.409-5.862
							L706.409-5.862z"/>
					</g>
					<g>
						<path style="fill:#CADAD5;" d="M700.783,19.473c0.152,0.627,0.303,1.254,0.455,1.881c0.177,0.734,1.348-0.457,1.488-0.621
							c0.457-0.535,1.15-1.482,0.965-2.247c-0.152-0.627-0.303-1.254-0.455-1.881c-0.177-0.734-1.348,0.457-1.488,0.621
							C701.29,17.761,700.598,18.709,700.783,19.473L700.783,19.473z"/>
					</g>
					<g>
						<path style="fill:#CADAD5;" d="M686.928,29.929c0.186,0.22,0.372,0.441,0.558,0.661c0.547,0.648,1.337,0.09,1.799-0.405
							c0.388-0.416,1.308-1.754,0.788-2.37c-0.186-0.22-0.372-0.441-0.558-0.661c-0.547-0.648-1.337-0.09-1.799,0.405
							C687.329,27.975,686.408,29.312,686.928,29.929L686.928,29.929z"/>
					</g>
					<g>
						<path style="fill:#CADAD5;" d="M696.723,51.65c-0.277,1.54-0.036,3.128,0.908,4.403c0.473,0.639,1.28-0.1,1.647-0.511
							c0.354-0.396,1.319-1.709,0.874-2.31c-0.676-0.913-1.061-2.008-0.856-3.146c0.135-0.752-0.336-1.1-1-0.696
							C697.541,49.848,696.881,50.776,696.723,51.65L696.723,51.65z"/>
					</g>
					<g>
						<path style="fill:#CADAD5;" d="M714.094,55.652c-0.554,1.588-1.107,3.177-1.661,4.765c-0.245,0.704,0.086,1.65,0.96,1.52
							c0.969-0.144,1.585-1.095,1.879-1.939c0.554-1.588,1.107-3.177,1.661-4.765c0.245-0.704-0.086-1.65-0.96-1.52
							C715.003,53.857,714.388,54.808,714.094,55.652L714.094,55.652z"/>
					</g>
					<g>
						<path style="fill:#CADAD5;" d="M730.367-30.992c0.559-0.472,2.329-3.854,0.952-2.692
							C730.76-33.213,728.99-29.831,730.367-30.992L730.367-30.992z"/>
					</g>
					<g>
						<path style="fill:#CADAD5;" d="M762.049-21.057c1.058-0.893,1.712-4.195-0.231-2.556
							C760.76-22.72,760.106-19.418,762.049-21.057L762.049-21.057z"/>
					</g>
					<g>
						<path style="fill:#CADAD5;" d="M779.279,10.002c1.289-1.088,1.322-4.468-0.622-2.828
							C777.369,8.262,777.336,11.642,779.279,10.002L779.279,10.002z"/>
					</g>
					<g>
						<path style="fill:#CADAD5;" d="M751.81,60.903c0.125,1.033,0.25,2.065,0.375,3.098c0.109,0.904,1.08,0.627,1.575,0.245
							c0.682-0.527,1.323-1.5,1.214-2.401c-0.125-1.033-0.25-2.065-0.375-3.098c-0.109-0.904-1.08-0.627-1.575-0.245
							C752.342,59.029,751.701,60.002,751.81,60.903L751.81,60.903z"/>
					</g>
					<g>
						<path style="fill:#CADAD5;" d="M735.617,15.58c1.22,0.103,2.439,0.207,3.659,0.31c1.885,0.16,3.433-1.299,4.183-2.926
							c0.361-0.784,0.577-1.713,0.378-2.573c-0.146-0.629-0.654-1.372-1.371-1.433c-1.22-0.103-2.439-0.207-3.659-0.31
							c-1.885-0.16-3.433,1.299-4.183,2.926c-0.361,0.784-0.577,1.713-0.378,2.573C734.392,14.777,734.9,15.52,735.617,15.58
							L735.617,15.58z"/>
					</g>
					<g>
						<path style="fill:#CADAD5;" d="M721.128,12.101c0.36,0.838,0.719,1.676,1.079,2.514c0.309,0.72,0.611,1.297,1.451,1.488
							c0.807,0.184,1.656-0.125,2.322-0.565c0.846-0.558,1.519-1.39,1.934-2.311c0.31-0.687,0.654-1.852,0.331-2.606
							c-0.36-0.838-0.719-1.676-1.079-2.514c-0.309-0.72-0.611-1.297-1.451-1.488c-0.807-0.184-1.656,0.125-2.322,0.565
							c-0.846,0.558-1.519,1.39-1.934,2.311C721.149,10.182,720.804,11.347,721.128,12.101L721.128,12.101z"/>
					</g>
					<g>
						<path style="fill:#CADAD5;" d="M731.345,39.437c1.863,0.829,3.819,1.11,5.824,0.618c1.804-0.443,3.197-2.189,3.702-3.916
							c0.357-1.222,0.094-3.334-1.709-2.892c-0.333,0.082-0.665,0.142-1.005,0.182c-0.136,0.014-0.272,0.024-0.408,0.03
							c0.623-0.037-0.047-0.024-0.156-0.03c-0.682-0.041-1.35-0.212-1.988-0.45c0.189,0.075,0.378,0.15,0.567,0.225
							c-0.127-0.05-0.253-0.103-0.376-0.161c-1.614-0.719-3.174,0.652-4.058,1.921c-0.537,0.772-0.953,1.687-1.037,2.634
							C730.654,38.134,730.732,39.164,731.345,39.437L731.345,39.437z"/>
					</g>
					<g>
						<path style="fill:#CADAD5;" d="M707.842,6.655c0.26,0.535,0.52,1.07,0.78,1.605c0.53,1.091,2.267-1.106,2.594-1.509
							c0.629-0.776,1.19-1.624,1.629-2.522c0.165-0.337,0.729-1.386,0.518-1.821c-0.26-0.535-0.52-1.07-0.78-1.605
							c-0.53-1.091-2.267,1.106-2.594,1.509c-0.629,0.776-1.19,1.624-1.629,2.522C708.195,5.172,707.631,6.221,707.842,6.655
							L707.842,6.655z"/>
					</g>
				</g>
				<g style="opacity:0.4;">
					<g>
						<path style="fill:#E4B39D;" d="M-1.906,415.146c-1.493,1.287-2.985,2.573-4.478,3.86c-0.975,0.84,1.404,3.615,2.375,2.778
							c1.493-1.287,2.985-2.573,4.478-3.86C1.443,417.084-0.935,414.309-1.906,415.146L-1.906,415.146z"/>
					</g>
					<g>
						<path style="fill:#E4B39D;" d="M-11.078,431.751c-0.128,0.361-0.255,0.722-0.383,1.083c-0.532,1.505,0.917,3.342,1.944,4.253
							c0.663,0.589,2.839,2.001,3.381,0.468c0.128-0.361,0.255-0.722,0.383-1.083c0.532-1.505-0.917-3.342-1.944-4.253
							C-8.361,431.631-10.536,430.219-11.078,431.751L-11.078,431.751z"/>
					</g>
					<g>
						<path style="fill:#E4B39D;" d="M14.683,423.928c-0.506,0.835-1.012,1.67-1.517,2.504c-0.897,1.48,0.545,3.615,1.642,4.511
							c1.117,0.911,3.003,1.514,3.912,0.014c0.506-0.835,1.012-1.67,1.517-2.504c0.897-1.48-0.545-3.615-1.642-4.511
							C17.478,423.031,15.592,422.428,14.683,423.928L14.683,423.928z"/>
					</g>
					<g>
						<path style="fill:#E4B39D;" d="M25.782,408.424c-1.692,0.259-3.384,0.518-5.075,0.778c-1.724,0.264-2.389,1.674-1.861,3.316
							c0.468,1.456,2.214,3.46,3.961,3.193c1.692-0.259,3.384-0.518,5.075-0.778c1.724-0.264,2.389-1.674,1.861-3.316
							C29.275,410.161,27.529,408.157,25.782,408.424L25.782,408.424z"/>
					</g>
					<g>
						<path style="fill:#E4B39D;" d="M2.065,396.519c-1.704,0.158-3.408,0.316-5.112,0.475c-4.167,0.387-1.241,6.841,2.071,6.533
							c1.704-0.158,3.408-0.316,5.112-0.475C8.303,402.665,5.377,396.212,2.065,396.519L2.065,396.519z"/>
					</g>
					<g>
						<path style="fill:#E4B39D;" d="M-13.536,382.243c-0.744,0.955-1.488,1.911-2.231,2.866c-0.861,1.106,0.541,2.938,1.236,3.751
							c0.563,0.659,1.236,1.28,2.013,1.679c0.308,0.158,1.18,0.538,1.501,0.125c0.744-0.955,1.488-1.911,2.231-2.866
							c0.861-1.106-0.541-2.938-1.236-3.751c-0.563-0.659-1.236-1.28-2.013-1.679C-12.343,382.21-13.214,381.83-13.536,382.243
							L-13.536,382.243z"/>
					</g>
					<g>
						<path style="fill:#E4B39D;" d="M19.681,384.614c-0.022,1.211-0.044,2.421-0.066,3.632c-0.027,1.518,1.235,2.991,2.259,3.983
							c0.525,0.509,1.151,1.042,1.855,1.288c0.295,0.103,0.961,0.176,0.97-0.345c0.022-1.211,0.044-2.421,0.066-3.632
							c0.027-1.518-1.235-2.991-2.259-3.983c-0.525-0.509-1.151-1.042-1.855-1.288C20.356,384.167,19.69,384.094,19.681,384.614
							L19.681,384.614z"/>
					</g>
					<g>
						<path style="fill:#E4B39D;" d="M33.445,429.827c-0.858,0.714-1.716,1.428-2.574,2.142c-0.402,0.335-0.186,1.066-0.048,1.449
							c0.295,0.82,0.809,1.57,1.371,2.228c0.562,0.657,1.223,1.282,1.987,1.701c0.369,0.202,1.034,0.515,1.439,0.178
							c0.858-0.714,1.716-1.428,2.574-2.142c0.402-0.335,0.186-1.066,0.048-1.449c-0.295-0.82-0.809-1.57-1.371-2.228
							c-0.562-0.657-1.223-1.282-1.987-1.701C34.516,429.802,33.851,429.489,33.445,429.827L33.445,429.827z"/>
					</g>
					<g>
						<path style="fill:#E4B39D;" d="M9.02,441.178c-2.349-0.752-4.627-0.734-6.939,0.136c-0.868,0.326,2.789,6.293,4.75,5.556
							c1.722-0.648,3.687-0.735,5.445-0.172c1.49,0.477,0.657-1.361,0.294-1.977C11.83,443.465,10.491,441.649,9.02,441.178
							L9.02,441.178z"/>
					</g>
					<g>
						<path style="fill:#E4B39D;" d="M-17.619,452.398c1.35,2.826,7.447,4.555,5.389,0.246
							C-13.579,449.819-19.676,448.09-17.619,452.398L-17.619,452.398z"/>
					</g>
					<g>
						<path style="fill:#E4B39D;" d="M-27.419,434.754c-0.733,0.35-1.466,0.7-2.199,1.05c-0.607,0.29-0.948,0.625-1,1.34
							c-0.058,0.804,0.269,1.621,0.68,2.292c0.492,0.804,1.18,1.519,1.992,2.002c0.488,0.29,1.458,0.739,2.053,0.455
							c0.733-0.35,1.466-0.7,2.199-1.05c0.607-0.29,0.948-0.625,1-1.34c0.058-0.804-0.269-1.621-0.68-2.292
							c-0.492-0.804-1.18-1.519-1.992-2.002C-25.853,434.918-26.823,434.469-27.419,434.754L-27.419,434.754z"/>
					</g>
					<g>
						<path style="fill:#E4B39D;" d="M-22.82,421.319c-0.835-0.506-1.67-1.012-2.504-1.517c-1.165-0.706-3.011-0.702-3.183,0.996
							c-0.179,1.764,1.226,3.468,2.638,4.323c0.835,0.506,1.67,1.012,2.504,1.517c1.165,0.706,3.011,0.702,3.183-0.996
							C-20.003,423.878-21.407,422.175-22.82,421.319L-22.82,421.319z"/>
					</g>
					<g>
						<path style="fill:#E4B39D;" d="M-12.052,405.952c-1.097-3.049-3.926-6.287-7.142-7.155c-1.545-0.417-0.883,1.422-0.487,2.141
							c0.713,1.293,2.084,3.091,3.6,3.501c0.234,0.063,0.457,0.137,0.682,0.226c-0.474-0.187,0.509,0.426-0.175-0.085
							c-0.364-0.272-0.689-0.636-0.952-1.005c-0.021-0.029-0.503-1.017-0.269-0.368c0.558,1.551,1.941,3.108,3.359,3.929
							c0.33,0.191,1.005,0.549,1.387,0.222C-11.661,407.025-11.922,406.314-12.052,405.952L-12.052,405.952z"/>
					</g>
					<g>
						<path style="fill:#E4B39D;" d="M-34.536,399.699c-1.246,1.792-2.491,3.585-3.737,5.377c-0.35,0.503,0.026,1.553,0.228,2.015
							c0.377,0.864,0.978,1.644,1.684,2.265c0.961,0.845,2.529,1.726,3.437,0.42c1.246-1.792,2.491-3.585,3.737-5.377
							c0.35-0.503-0.026-1.553-0.228-2.015c-0.377-0.864-0.978-1.644-1.684-2.265C-32.06,399.274-33.629,398.393-34.536,399.699
							L-34.536,399.699z"/>
					</g>
					<g>
						<path style="fill:#E4B39D;" d="M11.726,452.363c-0.271,1.326-0.543,2.652-0.814,3.978c-0.334,1.632,0.756,3.222,1.933,4.263
							c0.574,0.508,1.293,0.988,2.07,1.104c0.467,0.069,1.212-0.074,1.33-0.653c0.271-1.326,0.543-2.652,0.814-3.978
							c0.334-1.632-0.756-3.222-1.933-4.263c-0.574-0.508-1.293-0.988-2.07-1.104C12.59,451.641,11.844,451.785,11.726,452.363
							L11.726,452.363z"/>
					</g>
					<g>
						<path style="fill:#E4B39D;" d="M18.039,445.767c-0.128,0.361-0.255,0.722-0.383,1.083c-0.566,1.6,0.629,3.383,1.798,4.378
							c0.775,0.66,3.066,1.867,3.638,0.248c0.128-0.361,0.255-0.722,0.383-1.083c0.566-1.601-0.629-3.383-1.798-4.378
							C20.902,445.356,18.611,444.149,18.039,445.767L18.039,445.767z"/>
					</g>
					<g>
						<path style="fill:#E4B39D;" d="M-5.454,453.405c-0.128,0.361-0.255,0.722-0.383,1.083c-0.299,0.847,0.144,1.72,0.813,2.262
							c0.451,0.366,1.67,0.844,1.97-0.005c0.128-0.361,0.255-0.722,0.383-1.083c0.299-0.847-0.144-1.719-0.813-2.262
							C-3.935,453.034-5.154,452.556-5.454,453.405L-5.454,453.405z"/>
					</g>
					<g>
						<path style="fill:#E4B39D;" d="M28.573,439.104c-1.235-0.547-2.47-1.095-3.705-1.642c-0.675-0.299-1.591-0.286-1.737,0.623
							c-0.136,0.847,0.515,1.855,1.281,2.194c1.235,0.547,2.47,1.095,3.705,1.642c0.675,0.299,1.591,0.286,1.737-0.623
							C29.99,440.451,29.338,439.444,28.573,439.104L28.573,439.104z"/>
					</g>
					<g>
						<path style="fill:#E4B39D;" d="M46.292,411.403c-0.733,0.35-1.466,0.7-2.199,1.05c-0.797,0.381-0.728,1.292-0.339,1.969
							c0.345,0.601,1.336,1.518,2.124,1.141c0.733-0.35,1.466-0.7,2.199-1.05c0.797-0.381,0.728-1.292,0.339-1.969
							C48.071,411.943,47.08,411.026,46.292,411.403L46.292,411.403z"/>
					</g>
					<g>
						<path style="fill:#E4B39D;" d="M30.488,399.056c0.542,0.893,0.32,2.093-0.076,2.99c-0.482,1.091,2.105,3.601,2.648,2.373
							c0.849-1.921,0.414-3.993-0.643-5.733c-0.34-0.56-1.176-1.453-1.93-1.307C29.694,397.531,30.267,398.691,30.488,399.056
							L30.488,399.056z"/>
					</g>
					<g>
						<path style="fill:#E4B39D;" d="M8.819,387.943c-0.605-0.011-1.211-0.022-1.816-0.033c-0.709-0.013,0.096,1.333,0.211,1.499
							c0.377,0.542,1.074,1.395,1.812,1.409c0.605,0.011,1.211,0.022,1.816,0.033c0.709,0.013-0.096-1.333-0.211-1.499
							C10.253,388.809,9.557,387.956,8.819,387.943L8.819,387.943z"/>
					</g>
					<g>
						<path style="fill:#E4B39D;" d="M2.609,372.885c-0.244,0.117-0.489,0.233-0.733,0.35c-0.718,0.343-0.399,1.193-0.059,1.729
							c0.286,0.451,1.282,1.604,1.965,1.277c0.244-0.117,0.489-0.233,0.733-0.35c0.718-0.343,0.399-1.193,0.059-1.729
							C4.288,373.712,3.292,372.559,2.609,372.885L2.609,372.885z"/>
					</g>
					<g>
						<path style="fill:#E4B39D;" d="M-19.434,376.63c-1.333-0.617-2.832-0.774-4.213-0.219c-0.693,0.278-0.213,1.186,0.073,1.617
							c0.276,0.415,1.239,1.603,1.89,1.341c0.989-0.397,2.075-0.487,3.06-0.031c0.65,0.301,1.078-0.045,0.869-0.743
							C-17.993,377.8-18.678,376.98-19.434,376.63L-19.434,376.63z"/>
					</g>
					<g>
						<path style="fill:#E4B39D;" d="M-27.185,391.453c-1.311-0.879-2.622-1.758-3.933-2.638c-0.581-0.39-1.518-0.313-1.608,0.512
							c-0.099,0.914,0.619,1.698,1.315,2.165c1.311,0.879,2.622,1.758,3.933,2.638c0.581,0.39,1.518,0.313,1.608-0.512
							C-25.771,392.705-26.489,391.92-27.185,391.453L-27.185,391.453z"/>
					</g>
					<g>
						<path style="fill:#E4B39D;" d="M47.628,426.765c0.296,0.62,2.947,3.028,2.219,1.503
							C49.551,427.649,46.899,425.24,47.628,426.765L47.628,426.765z"/>
					</g>
					<g>
						<path style="fill:#E4B39D;" d="M31.098,453.177c0.56,1.173,3.403,2.549,2.375,0.396
							C32.913,452.4,30.07,451.024,31.098,453.177L31.098,453.177z"/>
					</g>
					<g>
						<path style="fill:#E4B39D;" d="M-1.187,461.46c0.682,1.428,3.743,2.259,2.715,0.106C0.846,460.137-2.215,459.306-1.187,461.46
							L-1.187,461.46z"/>
					</g>
					<g>
						<path style="fill:#E4B39D;" d="M-40.893,424.454c-0.967-0.131-1.934-0.263-2.902-0.394c-0.847-0.115-0.825,0.832-0.596,1.372
							c0.317,0.744,1.049,1.557,1.893,1.671c0.967,0.131,1.934,0.263,2.902,0.394c0.847,0.115,0.825-0.832,0.596-1.372
							C-39.317,425.381-40.049,424.569-40.893,424.454L-40.893,424.454z"/>
					</g>
					<g>
						<path style="fill:#E4B39D;" d="M4.097,420.494c-0.383,1.083-0.766,2.166-1.149,3.249c-0.592,1.674,0.366,3.425,1.665,4.491
							c0.626,0.514,1.419,0.93,2.246,0.953c0.606,0.017,1.401-0.269,1.626-0.905c0.383-1.083,0.766-2.166,1.149-3.249
							c0.592-1.674-0.366-3.425-1.665-4.491c-0.626-0.514-1.419-0.93-2.246-0.953C5.117,419.572,4.322,419.857,4.097,420.494
							L4.097,420.494z"/>
					</g>
					<g>
						<path style="fill:#E4B39D;" d="M10.691,408.163c-0.846,0.128-1.692,0.256-2.539,0.384c-0.727,0.11-1.322,0.247-1.695,0.964
							c-0.358,0.69-0.279,1.533-0.037,2.242c0.307,0.9,0.902,1.709,1.64,2.303c0.551,0.444,1.527,1.033,2.287,0.918
							c0.846-0.128,1.692-0.256,2.539-0.384c0.727-0.11,1.322-0.247,1.695-0.964c0.358-0.69,0.279-1.533,0.037-2.242
							c-0.307-0.9-0.902-1.709-1.64-2.303C12.428,408.637,11.452,408.048,10.691,408.163L10.691,408.163z"/>
					</g>
					<g>
						<path style="fill:#E4B39D;" d="M-16.552,410.96c-1.194,1.495-1.913,3.204-1.942,5.142c-0.026,1.743,1.23,3.422,2.678,4.289
							c1.025,0.614,3.005,0.876,3.031-0.866c0.005-0.322,0.029-0.637,0.073-0.956c0.019-0.127,0.043-0.252,0.069-0.378
							c-0.114,0.574,0.033-0.038,0.064-0.134c0.199-0.61,0.512-1.176,0.88-1.698c-0.113,0.154-0.226,0.307-0.339,0.461
							c0.075-0.104,0.154-0.205,0.235-0.304c1.035-1.295,0.16-3.037-0.782-4.139c-0.573-0.671-1.306-1.266-2.146-1.565
							C-15.205,410.642-16.159,410.469-16.552,410.96L-16.552,410.96z"/>
					</g>
					<g>
						<path style="fill:#E4B39D;" d="M18.784,397.39c-0.547,0.109-1.095,0.218-1.642,0.328c-1.116,0.223,0.467,2.32,0.755,2.712
							c0.556,0.755,1.192,1.466,1.904,2.077c0.267,0.23,1.086,0.99,1.53,0.901c0.547-0.109,1.095-0.218,1.642-0.328
							c1.116-0.223-0.467-2.32-0.755-2.713c-0.556-0.755-1.192-1.466-1.904-2.077C20.047,398.062,19.229,397.302,18.784,397.39
							L18.784,397.39z"/>
					</g>
				</g>
				<g style="opacity:0.3;">
					<g>
						<path style="fill:#BF512D;" d="M733.512,479.38c-0.018,2.315-0.035,4.629-0.053,6.944c-0.012,1.511,4.281,1.556,4.292,0.05
							c0.018-2.315,0.035-4.629,0.053-6.944C737.816,477.919,733.524,477.874,733.512,479.38L733.512,479.38z"/>
					</g>
					<g>
						<path style="fill:#BF512D;" d="M741.091,500.331c0.22,0.392,0.441,0.784,0.661,1.176c0.918,1.634,3.662,1.775,5.262,1.572
							c1.034-0.131,3.964-0.961,3.029-2.626c-0.22-0.392-0.441-0.784-0.661-1.176c-0.918-1.634-3.662-1.775-5.262-1.572
							C743.087,497.836,740.156,498.666,741.091,500.331L741.091,500.331z"/>
					</g>
					<g>
						<path style="fill:#BF512D;" d="M754.107,471.513c0.346,1.093,0.693,2.186,1.039,3.278c0.614,1.938,3.616,2.316,5.257,2.038
							c1.669-0.283,3.661-1.482,3.039-3.446c-0.346-1.093-0.693-2.186-1.039-3.278c-0.614-1.938-3.616-2.316-5.257-2.038
							C755.476,468.35,753.484,469.549,754.107,471.513L754.107,471.513z"/>
					</g>
					<g>
						<path style="fill:#BF512D;" d="M748.992,449.711c-1.08,1.696-2.159,3.391-3.239,5.087c-1.1,1.728-0.368,3.406,1.491,4.209
							c1.649,0.712,4.771,0.72,5.885-1.03c1.08-1.696,2.159-3.391,3.239-5.087c1.1-1.728,0.368-3.406-1.491-4.209
							C753.229,447.969,750.107,447.96,748.992,449.711L748.992,449.711z"/>
					</g>
					<g>
						<path style="fill:#BF512D;" d="M720.124,461.46c-1.178,1.628-2.357,3.257-3.535,4.885c-2.882,3.982,5.085,6.389,7.376,3.224
							c1.178-1.628,2.357-3.257,3.535-4.885C730.381,460.702,722.414,458.296,720.124,461.46L720.124,461.46z"/>
					</g>
					<g>
						<path style="fill:#BF512D;" d="M695.438,464.203c0.269,1.396,0.538,2.793,0.806,4.189c0.311,1.616,3.015,1.795,4.272,1.81
							c1.018,0.012,2.087-0.102,3.041-0.48c0.378-0.15,1.388-0.626,1.272-1.229c-0.269-1.396-0.538-2.793-0.806-4.189
							c-0.311-1.616-3.015-1.795-4.272-1.81c-1.018-0.012-2.087,0.102-3.041,0.48C696.332,463.123,695.322,463.6,695.438,464.203
							L695.438,464.203z"/>
					</g>
					<g>
						<path style="fill:#BF512D;" d="M723.231,436.683c1.053,0.956,2.106,1.912,3.158,2.867c1.32,1.199,3.598,1.222,5.268,1.085
							c0.856-0.07,1.811-0.211,2.573-0.643c0.319-0.181,0.898-0.713,0.446-1.124c-1.053-0.956-2.106-1.912-3.158-2.867
							c-1.32-1.199-3.598-1.222-5.268-1.085c-0.856,0.07-1.811,0.211-2.573,0.643C723.357,435.74,722.778,436.272,723.231,436.683
							L723.231,436.683z"/>
					</g>
					<g>
						<path style="fill:#BF512D;" d="M773.834,459.496c-0.033,1.311-0.065,2.621-0.098,3.932c-0.015,0.615,0.798,0.989,1.244,1.164
							c0.953,0.373,2.014,0.5,3.029,0.511s2.079-0.089,3.041-0.44c0.464-0.17,1.255-0.515,1.271-1.134
							c0.033-1.311,0.065-2.621,0.098-3.932c0.015-0.615-0.798-0.989-1.244-1.164c-0.953-0.374-2.014-0.5-3.029-0.511
							c-1.016-0.012-2.079,0.089-3.041,0.44C774.64,458.531,773.849,458.877,773.834,459.496L773.834,459.496z"/>
					</g>
					<g>
						<path style="fill:#BF512D;" d="M764.97,489.862c-2.482,1.493-4.227,3.521-5.248,6.238c-0.383,1.019,7.719,2.404,8.584,0.1
							c0.76-2.023,2.203-3.827,4.061-4.944c1.574-0.947-0.695-1.634-1.519-1.79C769.165,489.149,766.524,488.927,764.97,489.862
							L764.97,489.862z"/>
					</g>
					<g>
						<path style="fill:#BF512D;" d="M754.277,522.083c3.541,0.993,9.786-3.057,4.387-4.572
							C755.123,516.519,748.878,520.569,754.277,522.083L754.277,522.083z"/>
					</g>
					<g>
						<path style="fill:#BF512D;" d="M731.103,517.094c-0.258,0.918-0.515,1.837-0.773,2.755c-0.213,0.761-0.181,1.322,0.41,1.921
							c0.665,0.674,1.641,1.016,2.552,1.172c1.091,0.187,2.255,0.133,3.31-0.212c0.633-0.207,1.781-0.716,1.99-1.463
							c0.258-0.918,0.515-1.837,0.773-2.755c0.213-0.761,0.181-1.322-0.41-1.921c-0.666-0.674-1.641-1.016-2.552-1.172
							c-1.091-0.187-2.255-0.132-3.31,0.212C732.46,515.838,731.313,516.348,731.103,517.094L731.103,517.094z"/>
					</g>
					<g>
						<path style="fill:#BF512D;" d="M722.789,502.637c-1.093,0.346-2.186,0.693-3.278,1.039c-1.525,0.483-2.95,2.118-1.582,3.584
							c1.421,1.523,4.013,1.599,5.861,1.013c1.093-0.346,2.186-0.693,3.278-1.039c1.525-0.483,2.95-2.118,1.582-3.584
							C727.229,502.127,724.637,502.051,722.789,502.637L722.789,502.637z"/>
					</g>
					<g>
						<path style="fill:#BF512D;" d="M717.538,481.233c-3.543-1.389-8.593-1.394-11.848,0.776c-1.564,1.043,0.573,1.88,1.516,2.086
							c1.695,0.37,4.344,0.55,5.879-0.474c0.237-0.158,0.474-0.298,0.728-0.428c-0.532,0.274,0.77-0.12-0.21,0.089
							c-0.523,0.111-1.095,0.117-1.625,0.064c-0.042-0.004-1.287-0.342-0.533-0.047c1.802,0.707,4.248,0.689,6.07,0.071
							c0.425-0.144,1.263-0.463,1.27-1.054C718.79,481.718,717.959,481.398,717.538,481.233L717.538,481.233z"/>
					</g>
					<g>
						<path style="fill:#BF512D;" d="M694.619,496.266c0.62,2.487,1.241,4.975,1.861,7.462c0.174,0.699,1.393,1.179,1.957,1.358
							c1.056,0.335,2.21,0.408,3.305,0.264c1.49-0.196,3.482-0.9,3.03-2.713c-0.62-2.487-1.241-4.975-1.861-7.462
							c-0.174-0.699-1.393-1.179-1.957-1.358c-1.056-0.335-2.21-0.408-3.305-0.264C696.159,493.749,694.167,494.453,694.619,496.266
							L694.619,496.266z"/>
					</g>
					<g>
						<path style="fill:#BF512D;" d="M776.948,496.124c0.962,1.266,1.924,2.531,2.886,3.797c1.184,1.557,3.433,1.824,5.262,1.59
							c0.893-0.115,1.874-0.378,2.577-0.975c0.422-0.359,0.872-1.129,0.452-1.681c-0.962-1.266-1.924-2.531-2.886-3.797
							c-1.184-1.557-3.433-1.824-5.262-1.59c-0.893,0.115-1.874,0.378-2.577,0.975C776.978,494.803,776.528,495.572,776.948,496.124
							L776.948,496.124z"/>
					</g>
					<g>
						<path style="fill:#BF512D;" d="M776.003,485.443c0.22,0.392,0.441,0.784,0.661,1.176c0.977,1.738,3.476,2.061,5.26,1.798
							c1.182-0.174,4.021-1.265,3.034-3.023c-0.22-0.392-0.441-0.784-0.661-1.176c-0.977-1.738-3.476-2.061-5.26-1.798
							C777.854,482.594,775.015,483.685,776.003,485.443L776.003,485.443z"/>
					</g>
					<g>
						<path style="fill:#BF512D;" d="M764.578,512.113c0.22,0.392,0.44,0.784,0.661,1.176c0.517,0.919,1.631,1.203,2.628,1.032
							c0.673-0.115,2.038-0.823,1.52-1.746c-0.22-0.392-0.441-0.784-0.661-1.176c-0.517-0.92-1.631-1.203-2.628-1.032
							C765.425,510.483,764.06,511.19,764.578,512.113L764.578,512.113z"/>
					</g>
					<g>
						<path style="fill:#BF512D;" d="M778.263,470.979c-1.439,0.668-2.878,1.336-4.317,2.003c-0.787,0.365-1.484,1.185-0.794,2.017
							c0.643,0.776,2.038,0.98,2.93,0.566c1.439-0.668,2.878-1.336,4.317-2.003c0.787-0.365,1.484-1.185,0.794-2.017
							C780.55,470.769,779.155,470.565,778.263,470.979L778.263,470.979z"/>
					</g>
					<g>
						<path style="fill:#BF512D;" d="M767.49,433.891c-0.258,0.918-0.515,1.837-0.773,2.755c-0.28,0.999,0.578,1.643,1.478,1.823
							c0.798,0.16,2.375-0.007,2.652-0.994c0.258-0.918,0.515-1.837,0.773-2.755c0.28-0.999-0.578-1.643-1.478-1.823
							C769.344,432.737,767.767,432.903,767.49,433.891L767.49,433.891z"/>
					</g>
					<g>
						<path style="fill:#BF512D;" d="M744.354,438.305c1.208,0.211,2.097,1.337,2.583,2.38c0.591,1.27,4.811,0.925,4.145-0.504
							c-1.041-2.236-3.208-3.455-5.564-3.867c-0.759-0.133-2.194-0.084-2.648,0.695
							C742.392,437.827,743.859,438.218,744.354,438.305L744.354,438.305z"/>
					</g>
					<g>
						<path style="fill:#BF512D;" d="M717.769,448.858c-0.478,0.526-0.956,1.053-1.434,1.579c-0.559,0.616,1.252,0.946,1.488,0.973
							c0.771,0.086,2.063,0.131,2.646-0.511c0.478-0.526,0.956-1.053,1.434-1.579c0.559-0.616-1.252-0.946-1.488-0.973
							C719.644,448.26,718.352,448.216,717.769,448.858L717.769,448.858z"/>
					</g>
					<g>
						<path style="fill:#BF512D;" d="M699.659,442.696c-0.086,0.306-0.172,0.612-0.258,0.918c-0.252,0.9,0.745,1.275,1.483,1.39
							c0.62,0.096,2.409,0.108,2.649-0.748c0.086-0.306,0.172-0.612,0.258-0.918c0.252-0.9-0.745-1.275-1.483-1.39
							C701.688,441.852,699.899,441.84,699.659,442.696L699.659,442.696z"/>
					</g>
					<g>
						<path style="fill:#BF512D;" d="M685.916,465.074c-1.576,0.7-2.875,1.904-3.453,3.553c-0.29,0.827,0.884,1.106,1.485,1.186
							c0.58,0.078,2.375,0.145,2.648-0.633c0.414-1.181,1.175-2.211,2.339-2.728c0.769-0.342,0.795-0.987,0.016-1.343
							C688.065,464.705,686.81,464.677,685.916,465.074L685.916,465.074z"/>
					</g>
					<g>
						<path style="fill:#BF512D;" d="M693.019,483.391c-1.791,0.478-3.582,0.957-5.374,1.435c-0.794,0.212-1.451,1.1-0.791,1.817
							c0.731,0.795,1.979,0.767,2.931,0.513c1.791-0.478,3.582-0.957,5.374-1.435c0.794-0.212,1.451-1.1,0.791-1.817
							C695.218,483.109,693.97,483.137,693.019,483.391L693.019,483.391z"/>
					</g>
					<g>
						<path style="fill:#BF512D;" d="M782.1,444.594c0.776,0.218,4.956-0.262,3.045-0.798
							C784.369,443.578,780.189,444.058,782.1,444.594L782.1,444.594z"/>
					</g>
					<g>
						<path style="fill:#BF512D;" d="M792.653,479.634c1.469,0.412,4.885-1.035,2.188-1.792
							C793.371,477.43,789.955,478.877,792.653,479.634L792.653,479.634z"/>
					</g>
					<g>
						<path style="fill:#BF512D;" d="M774.997,514.573c1.79,0.502,4.893-1.56,2.194-2.317
							C775.401,511.753,772.298,513.816,774.997,514.573L774.997,514.573z"/>
					</g>
					<g>
						<path style="fill:#BF512D;" d="M711.578,521.034c-0.864,0.753-1.729,1.506-2.593,2.26c-0.757,0.66,0.097,1.373,0.751,1.588
							c0.903,0.296,2.187,0.278,2.941-0.38c0.864-0.753,1.729-1.506,2.593-2.26c0.757-0.66-0.097-1.373-0.751-1.588
							C713.616,520.359,712.332,520.377,711.578,521.034L711.578,521.034z"/>
					</g>
					<g>
						<path style="fill:#BF512D;" d="M742.882,478.212c0.661,1.176,1.322,2.352,1.982,3.528c1.021,1.818,3.31,2.327,5.257,2.003
							c0.938-0.156,1.919-0.534,2.58-1.247c0.483-0.522,0.846-1.446,0.458-2.137c-0.661-1.176-1.322-2.352-1.982-3.528
							c-1.022-1.818-3.31-2.327-5.257-2.003c-0.938,0.156-1.919,0.534-2.58,1.247C742.857,476.597,742.494,477.521,742.882,478.212
							L742.882,478.212z"/>
					</g>
					<g>
						<path style="fill:#BF512D;" d="M737.086,462.845c-0.542,0.847-1.083,1.693-1.625,2.54c-0.465,0.728-0.805,1.36-0.459,2.244
							c0.332,0.85,1.139,1.432,1.952,1.767c1.033,0.425,2.208,0.525,3.304,0.333c0.818-0.143,2.094-0.55,2.581-1.311
							c0.542-0.847,1.083-1.693,1.625-2.54c0.465-0.728,0.805-1.36,0.459-2.244c-0.332-0.85-1.139-1.432-1.952-1.767
							c-1.033-0.425-2.208-0.525-3.304-0.333C738.848,461.677,737.573,462.084,737.086,462.845L737.086,462.845z"/>
					</g>
					<g>
						<path style="fill:#BF512D;" d="M718.484,489.085c0.397,2.212,1.352,4.169,3.042,5.693c1.521,1.371,3.975,1.561,5.862,0.951
							c1.335-0.431,3.099-1.979,1.579-3.349c-0.281-0.253-0.541-0.519-0.789-0.804c-0.097-0.115-0.19-0.233-0.28-0.353
							c0.419,0.545-0.008-0.058-0.069-0.161c-0.385-0.647-0.643-1.362-0.821-2.091c0.049,0.219,0.097,0.437,0.146,0.656
							c-0.033-0.147-0.062-0.294-0.086-0.443c-0.344-1.917-2.559-2.491-4.263-2.511c-1.036-0.012-2.128,0.175-3.043,0.685
							C719.244,487.648,718.353,488.357,718.484,489.085L718.484,489.085z"/>
					</g>
					<g>
						<path style="fill:#BF512D;" d="M733.827,447.36c-0.327,0.568-0.654,1.136-0.981,1.704c-0.667,1.159,2.411,1.383,2.982,1.431
							c1.097,0.093,2.217,0.08,3.309-0.076c0.41-0.059,1.715-0.193,1.98-0.655c0.327-0.568,0.654-1.136,0.981-1.704
							c0.667-1.159-2.411-1.383-2.982-1.431c-1.097-0.093-2.217-0.08-3.309,0.076C735.398,446.763,734.093,446.898,733.827,447.36
							L733.827,447.36z"/>
					</g>
				</g>
				<g>
					<path style="fill:#564A47;" d="M314.429-23.271c22.182,12.384,21.89,42.773,37.215,60.963
						c6.743,8.004,16.401,11.845,26.758,10.466c11.235-1.496,21.042-9.259,29.657-16.035c23.707-18.647,50.245-33.964,81.455-32.716
						c14.927,0.597,28.448,6.849,42.487,11.233c12.304,3.842,24.527,4.336,37.033,1.236c17.757-4.401,33.469-15.233,48.288-25.502
						c0.807-0.559-0.442-0.747-0.899-0.43c-12.143,8.415-24.497,16.637-38.269,22.164c-16.136,6.476-32.082,6.05-48.424,0.74
						c-12.644-4.109-24.628-9.087-38.026-10.165C479.051-2.334,466.277,0.011,454.309,4c-12.273,4.09-23.746,10.407-34.323,17.794
						c-11.448,7.995-21.402,18.28-34.512,23.653c-15.02,6.156-28.337-1.43-36.659-13.902c-6.952-10.417-9.963-22.848-15.145-34.127
						c-3.999-8.704-9.588-16.645-18.088-21.391C315.168-24.203,313.832-23.604,314.429-23.271L314.429-23.271z"/>
				</g>
				<path style="fill:#564A47;" d="M127.691,109.172c-22.98-7.123-47.981-7.09-70.989-14.285C22.03,84.044-5.915,55-16.881,20.61
					c-0.152-0.478-1.594-0.068-1.449,0.388c7.365,23.098,21.992,43.108,41.312,57.68c22.095,16.665,47.866,21.161,74.586,25.189
					c9.765,1.472,19.998,3.369,29.751,6.424C127.443,109.918,127.567,109.545,127.691,109.172z"/>
				<path style="fill:#564A47;" d="M304.023,547.882c-6.874-12.959-6.805-27.664-6.427-41.959
					c0.366-13.799,0.644-27.604-0.63-41.369c-2.398-25.911-12.529-48.883-32.632-65.727c-17.766-14.886-40.013-23.583-61.344-31.95
					c-22.211-8.712-47.526-16.36-63.742-34.888c-9.257-10.577-11.62-23.801-7.676-37.159c4.145-14.039,13.381-26.576,19.882-39.607
					c0.973-1.95,1.939-3.923,2.897-5.912c-0.367-0.22-0.733-0.44-1.1-0.66c-2.591,5.535-5.332,11-8.214,16.388
					c-6.576,12.297-14.766,24.164-16.722,38.28c-3.379,24.385,19.704,40.884,38.932,50.056
					c42.065,20.066,97.015,29.491,119.207,75.734c8.872,18.486,10.054,39.759,10.021,59.919c-0.033,19.595-3.467,41.207,6.1,59.242
					C302.824,548.741,304.222,548.257,304.023,547.882z"/>
				<path style="fill:#564A47;" d="M428.752,492.123c-0.46-0.075-0.919-0.153-1.378-0.235c-2.877,17.215-0.889,35.232,6.792,51.274
					c0.237,0.494,1.65,0.032,1.449-0.388C428.013,526.897,426.005,509.231,428.752,492.123z"/>
				<path style="fill:#564A47;" d="M541.907,304.846c-1.581-11.406-0.543-22.78,3.086-33.031c-0.409-0.185-0.82-0.369-1.227-0.558
					c-4.086,11.564-4.833,24.451-2.857,37.031c2.179,13.87,8.497,26.686,11.602,40.334c3.312,14.554,0.354,28.215-8.912,39.862
					c-4.398,5.528-9.572,9.99-15.226,13.779c0.047,0.2,0.099,0.399,0.146,0.599c8.073-5.226,15.238-11.668,20.645-20.306
					C564.923,357.387,545.459,330.472,541.907,304.846z"/>
				<path style="fill:#564A47;" d="M796.921,196.134c-23.072,24.756-53.092,32.901-84.693,34.951
					c-0.118,0.28-0.226,0.566-0.346,0.845c32.189-2.336,63.238-10.932,86.198-35.568
					C798.658,195.741,797.241,195.79,796.921,196.134z"/>
				<path style="fill:#BF512D;" d="M115.854,14.865c-8.89,10.922-30.518,25.395-44.312,12.585
					c-6.022-5.592-5.294-15.441-9.704-22.375c-5.22-8.207-16.745-11.022-21.159-19.689c9.172-4.269,19.916-3.248,29.761-0.921
					s19.502,5.879,29.609,6.445C118.636-8.051,130.151-2.702,115.854,14.865z"/>
			</g>
		</g>
	</g>
</g>
</svg>
